<svg width="25" height="21" viewBox="0 0 25 21" fill="none" xmlns="http://www.w3.org/2000/svg">
<path fill-rule="evenodd" clip-rule="evenodd" d="M12.7234 2.32331e-05C13.5316 -0.00270197 14.3223 0.234376 14.9957 0.681247C15.669 1.12812 16.1946 1.7647 16.506 2.51042C16.8174 3.25614 16.9006 4.07749 16.745 4.8705C16.5895 5.66351 16.2021 6.39254 15.632 6.96533C15.062 7.53813 14.3348 7.92893 13.5425 8.08828C12.7503 8.24762 11.9285 8.16835 11.1813 7.8605C10.4341 7.55265 9.79507 7.03005 9.345 6.35885C8.89493 5.68765 8.6541 4.89802 8.65298 4.08989C8.65042 3.55372 8.75382 3.02233 8.95723 2.52624C9.16065 2.03014 9.46007 1.57912 9.8383 1.19909C10.2165 0.819054 10.6661 0.517493 11.1612 0.311721C11.6564 0.105948 12.1873 1.71353e-05 12.7234 2.32331e-05ZM11.025 20.9471C11.4988 20.9467 11.9727 20.9463 12.4466 20.9463V20.9713C12.7546 20.9713 13.0628 20.973 13.3709 20.9746H13.371H13.371H13.3711H13.3712C14.094 20.9784 14.8169 20.9822 15.5395 20.9651C16.3254 20.9463 17.1126 20.8918 17.896 20.8173C18.3663 20.7722 18.6994 20.4885 18.871 20.042C18.8806 20.0171 18.8905 19.992 18.9005 19.9668L18.9006 19.9664C18.9686 19.7943 19.0394 19.6147 19.0394 19.439C19.0401 19.0512 19.0439 18.6631 19.0478 18.2749C19.0594 17.1051 19.071 15.9346 18.9944 14.7705C18.8491 12.5731 17.008 10.4621 14.8701 9.93104C13.8706 9.68243 12.8423 9.69683 11.8191 9.76446C10.9367 9.8227 10.0945 10.0425 9.32046 10.4809C7.43052 11.5536 6.48931 13.2131 6.4104 15.3566C6.37452 16.3256 6.38476 17.2961 6.39501 18.2667C6.39889 18.6341 6.40277 19.0015 6.40414 19.3688C6.40858 19.5096 6.43325 19.649 6.47741 19.7828C6.70285 20.5167 7.32156 20.9425 8.18261 20.9463C9.12986 20.9488 10.0774 20.948 11.025 20.9471ZM24.679 18.3824C24.6927 18.3476 24.709 18.3139 24.7278 18.2815V12.5516C24.71 12.5102 24.6954 12.4675 24.684 12.4238C24.4717 11.1482 23.5054 10.093 22.2417 9.84944C21.4023 9.69693 20.542 9.70139 19.7043 9.86259C19.2423 9.94844 18.8135 10.1616 18.4662 10.4782C18.5528 10.5873 18.6394 10.6935 18.7249 10.7984L18.725 10.7984L18.725 10.7984L18.725 10.7985L18.725 10.7985C18.9133 11.0295 19.0965 11.2542 19.264 11.4901C20.1201 12.6944 20.4238 14.0733 20.4576 15.5193C20.477 16.3537 20.4721 17.1891 20.4671 18.0246V18.0246V18.0246V18.0247V18.0247C20.4648 18.4017 20.4626 18.7788 20.4626 19.1557V19.4062C20.5223 19.423 20.5832 19.4348 20.6448 19.4413C20.8978 19.4411 21.1507 19.4424 21.4036 19.4438C22.0642 19.4472 22.7247 19.4506 23.3846 19.4275C24.0283 19.405 24.4836 19.0017 24.679 18.3824ZM5.19188 13.8497C5.46304 12.5578 6.06922 11.4507 7.01732 10.4913C6.65098 10.1857 6.26773 9.93707 5.82312 9.88447C5.17395 9.80468 4.52018 9.76828 3.86617 9.77551C2.0664 9.80494 0.727539 11.1952 0.727539 13.0031V17.9559C0.728165 18.8489 1.29114 19.4306 2.18163 19.4419C2.78984 19.4493 3.39839 19.4482 4.00703 19.4471C4.22621 19.4467 4.44541 19.4463 4.6646 19.4463C4.73864 19.4458 4.81267 19.4371 4.88049 19.4291H4.88051L4.88056 19.4291C4.90966 19.4257 4.93762 19.4224 4.96394 19.42V16.9326C4.96206 15.8987 4.97834 14.8667 5.19188 13.8497ZM4.46634 3.00588C5.15077 3.00298 5.80833 3.27208 6.29435 3.75399C6.78038 4.23591 7.05505 4.89116 7.05796 5.57559C7.06087 6.26003 6.79176 6.91759 6.30985 7.40361C5.82794 7.88963 5.17269 8.16431 4.48825 8.16722C3.07737 8.17974 1.90446 7.01434 1.89945 5.59407C1.89772 5.25549 1.96277 4.91989 2.0909 4.60648C2.21902 4.29308 2.4077 4.00802 2.64612 3.76762C2.88454 3.52722 3.16803 3.3362 3.48037 3.20549C3.79271 3.07478 4.12775 3.00695 4.46634 3.00588ZM22.4184 3.44387C21.9943 3.15919 21.4953 3.00676 20.9845 3.00588C20.6461 3.0044 20.3107 3.06967 19.9975 3.19796C19.6844 3.32625 19.3996 3.51504 19.1595 3.75352C18.9194 3.992 18.7287 4.2755 18.5982 4.58778C18.4678 4.90006 18.4003 5.23498 18.3994 5.5734C18.3968 6.08417 18.5459 6.58423 18.8277 7.01025C19.1094 7.43627 19.5113 7.76908 19.9824 7.96655C20.4534 8.16402 20.9725 8.21726 21.4739 8.11953C21.9752 8.0218 22.4363 7.7775 22.7987 7.41755C23.1611 7.05761 23.4085 6.59822 23.5096 6.09755C23.6108 5.59689 23.5611 5.07747 23.3668 4.60507C23.1726 4.13267 22.8425 3.72855 22.4184 3.44387Z" fill="#FDDFBB"/>
</svg>
