<svg width="25" height="21" viewBox="0 0 25 21" fill="none" xmlns="http://www.w3.org/2000/svg">
<path fill-rule="evenodd" clip-rule="evenodd" d="M12.7239 2.32331e-05C13.532 -0.00270197 14.3228 0.234376 14.9961 0.681247C15.6695 1.12812 16.1951 1.7647 16.5065 2.51042C16.8179 3.25614 16.9011 4.07749 16.7455 4.8705C16.5899 5.66351 16.2026 6.39254 15.6325 6.96533C15.0625 7.53813 14.3353 7.92893 13.543 8.08828C12.7508 8.24762 11.929 8.16835 11.1818 7.8605C10.4346 7.55265 9.79556 7.03005 9.34549 6.35885C8.89542 5.68765 8.65458 4.89802 8.65346 4.08989C8.65091 3.55372 8.75431 3.02233 8.95772 2.52624C9.16113 2.03014 9.46056 1.57912 9.83879 1.19909C10.217 0.819054 10.6666 0.517493 11.1617 0.311721C11.6568 0.105948 12.1877 1.71353e-05 12.7239 2.32331e-05ZM11.0255 20.9471C11.4993 20.9467 11.9732 20.9463 12.4471 20.9463V20.9713C12.7551 20.9713 13.0632 20.973 13.3714 20.9746H13.3715H13.3715H13.3716H13.3717C14.0945 20.9784 14.8174 20.9822 15.54 20.9651C16.3259 20.9463 17.113 20.8918 17.8964 20.8173C18.3667 20.7722 18.6999 20.4885 18.8715 20.042C18.8811 20.0171 18.891 19.992 18.901 19.9668L18.9011 19.9664C18.9691 19.7943 19.0399 19.6147 19.0399 19.439C19.0406 19.0512 19.0444 18.6631 19.0483 18.2749C19.0599 17.1051 19.0715 15.9346 18.9948 14.7705C18.8496 12.5731 17.0085 10.4621 14.8705 9.93104C13.8711 9.68243 12.8428 9.69683 11.8196 9.76446C10.9372 9.8227 10.095 10.0425 9.32095 10.4809C7.43101 11.5536 6.4898 13.2131 6.41089 15.3566C6.37501 16.3256 6.38525 17.2961 6.3955 18.2667C6.39937 18.6341 6.40325 19.0015 6.40463 19.3688C6.40907 19.5096 6.43374 19.649 6.4779 19.7828C6.70334 20.5167 7.32205 20.9425 8.1831 20.9463C9.13035 20.9488 10.0779 20.948 11.0255 20.9471ZM24.6795 18.3824C24.6932 18.3476 24.7095 18.3139 24.7283 18.2815V12.5516C24.7105 12.5102 24.6959 12.4675 24.6845 12.4238C24.4722 11.1482 23.5059 10.093 22.2422 9.84944C21.4028 9.69693 20.5425 9.70139 19.7047 9.86259C19.2428 9.94844 18.814 10.1616 18.4667 10.4782C18.5533 10.5873 18.6399 10.6935 18.7254 10.7984L18.7254 10.7984L18.7255 10.7984L18.7255 10.7985L18.7255 10.7985C18.9138 11.0295 19.097 11.2542 19.2645 11.4901C20.1206 12.6944 20.4243 14.0733 20.4581 15.5193C20.4775 16.3537 20.4725 17.1891 20.4676 18.0246V18.0246V18.0246V18.0247V18.0247C20.4653 18.4017 20.4631 18.7788 20.4631 19.1557V19.4062C20.5227 19.423 20.5837 19.4348 20.6453 19.4413C20.8982 19.4411 21.1512 19.4424 21.4041 19.4438C22.0647 19.4472 22.7252 19.4506 23.3851 19.4275C24.0288 19.405 24.4841 19.0017 24.6795 18.3824ZM5.19237 13.8497C5.46353 12.5578 6.06971 11.4507 7.01781 10.4913C6.65147 10.1857 6.26822 9.93707 5.8236 9.88447C5.17444 9.80468 4.52067 9.76828 3.86666 9.77551C2.06689 9.80494 0.728027 11.1952 0.728027 13.0031V17.9559C0.728654 18.8489 1.29163 19.4306 2.18212 19.4419C2.79033 19.4493 3.39888 19.4482 4.00752 19.4471C4.2267 19.4467 4.4459 19.4463 4.66509 19.4463C4.73913 19.4458 4.81316 19.4371 4.88098 19.4291H4.881L4.88105 19.4291C4.91015 19.4257 4.93811 19.4224 4.96443 19.42V16.9326C4.96255 15.8987 4.97883 14.8667 5.19237 13.8497ZM4.46682 3.00588C5.15126 3.00298 5.80882 3.27208 6.29484 3.75399C6.78086 4.23591 7.05554 4.89116 7.05845 5.57559C7.06136 6.26003 6.79225 6.91759 6.31034 7.40361C5.82842 7.88963 5.17318 8.16431 4.48874 8.16722C3.07786 8.17974 1.90495 7.01434 1.89994 5.59407C1.89821 5.25549 1.96326 4.91989 2.09139 4.60648C2.21951 4.29308 2.40818 4.00802 2.64661 3.76762C2.88503 3.52722 3.16852 3.3362 3.48086 3.20549C3.7932 3.07478 4.12824 3.00695 4.46682 3.00588ZM22.4189 3.44387C21.9948 3.15919 21.4958 3.00676 20.985 3.00588C20.6466 3.0044 20.3112 3.06967 19.998 3.19796C19.6849 3.32625 19.4001 3.51504 19.16 3.75352C18.9199 3.992 18.7291 4.2755 18.5987 4.58778C18.4683 4.90006 18.4008 5.23498 18.3999 5.5734C18.3973 6.08417 18.5464 6.58423 18.8281 7.01025C19.1099 7.43627 19.5118 7.76908 19.9829 7.96655C20.4539 8.16402 20.973 8.21726 21.4743 8.11953C21.9757 8.0218 22.4368 7.7775 22.7992 7.41755C23.1616 7.05761 23.409 6.59822 23.5101 6.09755C23.6113 5.59689 23.5616 5.07747 23.3673 4.60507C23.173 4.13267 22.843 3.72855 22.4189 3.44387Z" fill="#A4A4A4"/>
</svg>
