<svg width="24" height="26" viewBox="0 0 24 26" fill="none" xmlns="http://www.w3.org/2000/svg">
<path fill-rule="evenodd" clip-rule="evenodd" d="M7.11058 5.04608H10.7385C11.0501 5.04608 11.3617 5.04655 11.6732 5.04701H11.6732C12.6075 5.0484 13.5416 5.04979 14.4761 5.03868C15.3416 5.03868 15.8717 4.49153 15.8762 3.63192C15.8806 3.01221 15.8828 2.39249 15.8762 1.77278C15.868 0.970928 15.309 0.411926 14.5094 0.411926H7.00322C6.1799 0.412667 5.62904 0.962775 5.62386 1.7824V3.55936C5.6246 4.53372 6.13251 5.04608 7.11058 5.04608ZM4.29284 3.58822V2.73232C4.09242 2.73966 3.89408 2.73734 3.69758 2.73504H3.69757H3.69757C3.1805 2.729 2.67621 2.72311 2.18048 2.89372C0.803334 3.3661 0.0022212 4.53445 0.0022212 6.09299C-0.000740399 11.3686 -0.000740399 16.6437 0.0022212 21.9183C-0.0029699 22.1773 0.0153678 22.4363 0.05701 22.692C0.187711 23.4273 0.574995 24.0923 1.14996 24.5689C1.72493 25.0454 2.45031 25.3025 3.19704 25.2945H11.2896C11.3393 25.2945 11.3887 25.2907 11.4442 25.2863C11.4763 25.2838 11.5105 25.2811 11.548 25.279C11.3585 24.7888 11.4036 24.3164 11.4947 23.8374C11.5976 23.2964 11.6841 22.7531 11.7708 22.2095L11.799 22.0323C11.8643 21.5429 12.0867 21.088 12.4328 20.7359C14.7724 18.3937 17.1114 16.0514 19.4496 13.7087C19.8669 13.2856 20.388 12.9792 20.9607 12.8203C21.0731 12.7882 21.1875 12.7635 21.2981 12.7397C21.3508 12.7284 21.4027 12.7172 21.4531 12.7055C21.4621 12.6815 21.4688 12.6567 21.4731 12.6315C21.4731 12.0389 21.4738 11.4464 21.4745 10.8538V10.8537V10.8537C21.4764 9.16039 21.4784 7.46693 21.4642 5.77388C21.4575 4.98831 21.1443 4.30197 20.6061 3.72297C19.6739 2.71751 18.4774 2.65976 17.2047 2.76045C17.2047 2.87672 17.2059 2.99223 17.2071 3.10722V3.10724V3.10726C17.2096 3.33571 17.212 3.56208 17.2047 3.78813C17.1625 5.05495 16.291 6.10188 15.0501 6.324C14.711 6.38477 14.3584 6.38169 14.0084 6.37864H14.0083H14.0083C13.9319 6.37797 13.8556 6.3773 13.7796 6.3773C11.5441 6.3852 9.30855 6.3852 7.07304 6.3773C5.40344 6.37138 4.29284 5.25337 4.29284 3.58822ZM11.7812 11.3676H9.78586L8.81426 11.3678H8.81349H8.81343C7.73327 11.3682 6.65335 11.3686 5.57299 11.3646C5.07692 11.3639 4.74078 11.0522 4.72893 10.5998C4.7174 10.3989 4.78466 10.2014 4.91642 10.0494C5.04818 9.89728 5.23405 9.80257 5.43453 9.78537C5.52651 9.77574 5.61896 9.77128 5.71144 9.77203C8.43611 9.77746 11.1613 9.77746 13.8869 9.77203C14.2971 9.77129 14.6436 9.86533 14.8154 10.277C15.0331 10.7982 14.6621 11.3543 14.0809 11.3639C13.5364 11.3723 12.9915 11.3706 12.4468 11.369H12.4467H12.4467H12.4466H12.4465C12.2247 11.3683 12.0029 11.3676 11.7812 11.3676ZM9.2972 15.9099H7.41732L6.89579 15.9102H6.89518C6.46057 15.9105 6.02585 15.9108 5.59076 15.9092C5.08432 15.9077 4.73782 15.6005 4.72745 15.1355C4.71709 14.6705 5.04434 14.3181 5.54559 14.3136C6.80871 14.3018 8.07184 14.3018 9.33496 14.3136C9.82658 14.3181 10.1798 14.6779 10.1657 15.1325C10.1516 15.5871 9.79697 15.9099 9.2972 15.9099ZM18.4957 16.5785L21.501 19.586C21.4129 19.6249 21.3301 19.6746 21.2544 19.7341L20.6927 20.2945C19.2892 21.6942 17.8853 23.0943 16.4959 24.506C16.2499 24.7563 15.9257 24.9149 15.5771 24.9554C15.0593 25.034 14.5415 25.1241 14.0262 25.2138L14.0259 25.2138L13.6935 25.2715C13.0834 25.3767 12.6629 24.9621 12.7643 24.3497C12.7959 24.1588 12.8266 23.9677 12.8572 23.7766L12.8573 23.7763C12.9408 23.2561 13.0242 22.7359 13.1271 22.2189C13.1609 22.0197 13.2499 21.834 13.384 21.6828C15.0622 19.9873 16.7469 18.299 18.438 16.6178C18.4556 16.6025 18.475 16.5893 18.4957 16.5785ZM19.8639 15.2419C19.7542 15.3672 19.6456 15.4912 19.5353 15.6086L22.4443 18.5228C22.5428 18.4248 22.6445 18.3258 22.7477 18.2253C22.9765 18.0025 23.2124 17.7728 23.4364 17.5314C23.7968 17.146 23.998 16.6386 23.9998 16.111C24.0016 15.5834 23.8038 15.0746 23.4461 14.6868C22.7079 13.8827 21.4677 13.7613 20.62 14.4647C20.3419 14.6957 20.1001 14.972 19.8639 15.2419Z" fill="#132F3D"/>
</svg>
