<svg width="24" height="24" viewBox="0 0 24 24" fill="none" xmlns="http://www.w3.org/2000/svg">
<path fill-rule="evenodd" clip-rule="evenodd" d="M11.8119 1.50751C10.7025 1.50501 9.7994 2.40001 9.79253 3.51001C9.78503 4.62251 10.6775 5.52689 11.7875 5.53126C12.8988 5.53564 13.8044 4.64189 13.8125 3.53314C13.8207 2.43126 12.9107 1.51001 11.8119 1.50751ZM5.19459 22.0518C4.98897 21.655 5.04397 21.32 5.19272 20.9706C5.86361 19.3942 6.5291 17.8154 7.19464 16.2365L7.19484 16.236C7.43508 15.6661 7.67533 15.0961 7.91584 14.5262C7.93583 14.4786 7.95785 14.4318 7.98307 14.3782L7.98309 14.3782C7.99492 14.3531 8.00747 14.3264 8.02084 14.2975C8.22318 14.4702 8.42346 14.6409 8.62233 14.8105L8.62358 14.8115C8.99497 15.1281 9.36143 15.4405 9.72709 15.7537C10.0517 16.0321 10.0508 16.0337 9.84722 16.4154L9.84647 16.4169C8.88709 18.2131 7.92772 20.01 6.96897 21.8062C6.94448 21.8518 6.92198 21.8983 6.89608 21.9518L6.89607 21.9518L6.89599 21.952C6.88359 21.9776 6.8704 22.0048 6.85584 22.0343H11.6765C11.4549 21.7177 11.4718 21.3751 11.4885 21.0341C11.4904 20.9942 11.4924 20.9542 11.494 20.9144L11.5028 20.6855L11.5029 20.6849C11.5474 19.5358 11.5919 18.3867 11.6446 17.2381C11.6571 16.965 11.5715 16.7594 11.3627 16.5825C10.9792 16.257 10.5977 15.9291 10.2162 15.6012C9.64398 15.1093 9.07172 14.6175 8.49272 14.1337C8.13522 13.8356 7.92647 13.4912 7.88834 13.0219C7.70084 10.7162 8.10272 8.54435 9.32397 6.55373C9.70397 5.93498 10.2771 5.76373 10.934 6.0731C12.599 6.8581 14.2627 7.64623 15.9233 8.43998C16.1002 8.52435 16.2502 8.53623 16.4315 8.45373C16.8433 8.26685 17.2615 8.09373 17.6833 7.93123C17.8265 7.87623 17.8621 7.79998 17.8615 7.6556C17.8552 6.63248 17.8571 5.60873 17.8608 4.5856C17.8615 4.49685 17.8777 4.3931 17.9265 4.3256C17.9602 4.27935 18.0758 4.25185 18.1327 4.27435C18.1971 4.29998 18.2683 4.38373 18.2802 4.45248C18.2976 4.55264 18.2949 4.65615 18.2922 4.75958V4.75961C18.2912 4.79751 18.2902 4.83539 18.2902 4.8731V7.67748L18.4168 7.62834C18.4767 7.60504 18.5312 7.58384 18.5858 7.5631C18.9827 7.41435 19.4027 7.56748 19.5877 7.92685C19.774 8.2906 19.6571 8.71935 19.2965 8.9506C19.1733 9.02959 19.0476 9.10443 18.9219 9.17925C18.7592 9.27611 18.5965 9.37294 18.4396 9.47873C18.3665 9.5281 18.2965 9.6456 18.2965 9.73185C18.2896 13.7787 18.2902 17.8256 18.2908 21.8725C18.2908 21.901 18.2928 21.9295 18.2952 21.9642C18.2966 21.9851 18.2982 22.0082 18.2996 22.035C18.316 22.0359 18.3322 22.037 18.3482 22.0381C18.3641 22.0392 18.3798 22.0404 18.3953 22.0415H18.3953C18.4577 22.0462 18.5175 22.0506 18.5771 22.0506C19.4384 22.0515 20.3001 22.0514 21.1616 22.0513L22.0221 22.0512L22.0732 22.0509C22.1187 22.0506 22.1641 22.0502 22.2096 22.0525C22.3483 22.0593 22.4596 22.1069 22.4615 22.2681C22.4633 22.4269 22.359 22.4837 22.2177 22.4925C22.1731 22.4952 22.1284 22.4946 22.0838 22.4941C22.0659 22.4939 22.0481 22.4937 22.0302 22.4937H1.96772C1.94444 22.4937 1.92005 22.4953 1.89553 22.497C1.82983 22.5013 1.76312 22.5057 1.71397 22.4794C1.63897 22.4387 1.54897 22.3431 1.54834 22.2712C1.54772 22.2012 1.64147 22.1106 1.71584 22.0675C1.75948 22.0418 1.821 22.0457 1.88156 22.0497H1.88158C1.90342 22.0511 1.92514 22.0525 1.94584 22.0525C2.93022 22.0518 3.91459 22.0518 4.89897 22.0518H5.19459ZM17.839 22.03V9.82998C17.7066 9.90899 17.576 9.98612 17.4469 10.0623L17.4468 10.0624L17.4467 10.0625C17.1348 10.2467 16.8321 10.4255 16.5346 10.6125C16.2765 10.775 16.0258 10.8006 15.7352 10.6987C14.9209 10.4146 14.1035 10.1384 13.2861 9.86221L13.2859 9.86214C13.0029 9.76653 12.7199 9.67092 12.4371 9.57498C12.1215 9.4681 12.0358 9.51498 11.9677 9.84435C11.9022 10.1613 11.8375 10.4785 11.7727 10.7957L11.7726 10.796L11.7726 10.7962C11.6798 11.2506 11.587 11.705 11.4921 12.1587C11.4577 12.3244 11.4915 12.4525 11.6052 12.5856C12.0244 13.0767 12.4389 13.5716 12.8533 14.0664L12.8534 14.0665C13.0655 14.3198 13.2776 14.573 13.4902 14.8256C13.9052 15.3187 14.0577 15.8825 13.9952 16.5231C13.9503 16.9822 13.9132 17.4419 13.8761 17.9017C13.8315 18.4534 13.7869 19.005 13.729 19.5556C13.7032 19.8017 13.689 20.0493 13.6748 20.2971L13.6748 20.2972V20.2972C13.6413 20.8794 13.6078 21.4627 13.4246 22.03H17.839ZM4.01416 8.96374C4.08041 7.44749 4.63353 6.16062 5.83603 5.19499C6.37791 4.75999 6.99728 4.55062 7.69541 4.73874C8.30353 4.90249 8.90791 5.64437 8.94229 6.24999C8.94603 6.31249 8.90666 6.38249 8.87291 6.44062C8.12666 7.71749 7.65916 9.08687 7.49228 10.5575C7.48478 10.6231 7.46479 10.7062 7.41916 10.7462C6.83603 11.2612 6.17603 11.5581 5.38291 11.3669C4.90791 11.2525 4.58541 10.925 4.35478 10.505C4.09228 10.0256 4.01416 9.50499 4.01416 8.96374Z" fill="#132F3D"/>
</svg>
