<svg width="24" height="24" viewBox="0 0 24 24" fill="none" xmlns="http://www.w3.org/2000/svg">
<path fill-rule="evenodd" clip-rule="evenodd" d="M15.0078 22H15.2813C15.5496 21.8915 15.8178 21.7828 16.086 21.6741C16.6226 21.4566 17.1593 21.2391 17.6969 21.0234C18.974 20.5109 20.2521 19.999 21.5318 19.4927C21.7594 19.4026 21.9157 19.2578 22 19.0312V2.42969L21.9999 2.42945V2H21.5703H21.5702H21.2578C21.0703 2.07708 20.883 2.15463 20.6957 2.23217L20.6957 2.23219L20.6955 2.23226L20.6955 2.23227C20.3209 2.38733 19.9463 2.54239 19.5703 2.69375C18.9739 2.93318 18.3772 3.17161 17.7804 3.41002L17.7787 3.41072L17.7781 3.41098C16.9529 3.74065 16.1278 4.07031 15.3037 4.4026C15.1849 4.45 15.0891 4.44583 14.9729 4.39896C13.3948 3.76722 11.8161 3.13778 10.2372 2.5083L9.02243 2.02396C9.01431 2.02064 9.0075 2.01418 9.00071 2.00774L9.0007 2.00774C8.9979 2.00508 8.99511 2.00243 8.99222 2H8.71878C8.47444 2.09902 8.23019 2.19816 7.98597 2.2973L7.98574 2.29739C7.39501 2.53719 6.80442 2.77693 6.21305 3.01458L5.94393 3.12265C4.79866 3.58255 3.65277 4.0427 2.5042 4.49479C2.26514 4.58906 2.08597 4.72344 2.00003 4.96875C2.00003 10.5026 2.00003 16.0365 1.99951 21.5698C2.0917 21.7641 2.23493 21.9073 2.4292 21.9995H2.7417C2.91553 21.9282 3.08926 21.8565 3.26301 21.7849L3.26328 21.7848L3.26354 21.7846L3.26431 21.7843C3.65238 21.6243 4.04057 21.4642 4.43024 21.3078C5.85212 20.7375 7.27503 20.1687 8.69951 19.6057C8.78597 19.5714 8.9068 19.5568 8.98909 19.5896C10.6979 20.267 12.4045 20.9501 14.1107 21.633L14.1121 21.6336L14.9938 21.9865C14.9977 21.9879 15.0006 21.9915 15.0036 21.9951C15.005 21.9968 15.0064 21.9985 15.0078 22ZM13.8387 9.05017C13.8389 9.29783 13.8391 9.54551 13.8391 9.79323L13.8392 10.6651C13.8393 11.2464 13.8394 11.8276 13.8391 12.4089C13.8381 12.9552 13.4594 13.213 12.9516 13.0115C12.1672 12.6995 11.3834 12.3854 10.5995 12.0708C10.2797 11.9427 10.162 11.7719 10.162 11.4318C10.161 9.66198 10.1604 7.89167 10.162 6.12187C10.1625 5.61406 10.5474 5.3526 11.0209 5.53958C11.6422 5.78482 12.2623 6.03318 12.8824 6.28152L12.8827 6.28162L13.4282 6.5C13.7068 6.61146 13.8422 6.81458 13.8407 7.11875C13.8376 7.7627 13.8382 8.40638 13.8387 9.05017ZM8.19433 14.9406C8.1938 15.0758 8.19326 15.2111 8.19326 15.3464L8.19379 15.6348C8.19447 15.9553 8.19515 16.2758 8.19274 16.5964C8.19014 16.962 8.07555 17.1297 7.73753 17.2656C6.95368 17.5807 6.1693 17.8953 5.38389 18.2062C4.90003 18.3979 4.50993 18.137 4.50784 17.6187C4.50572 17.1175 4.50607 16.6162 4.50643 16.115V16.1148C4.50668 15.7568 4.50693 15.3987 4.50628 15.0406C4.50576 14.724 4.64951 14.5146 4.94639 14.3979C5.35591 14.2365 5.76461 14.0727 6.17333 13.9089L6.17334 13.9089L6.17335 13.9089C6.56098 13.7535 6.94862 13.5982 7.33701 13.4448C7.79899 13.2625 8.18337 13.5198 8.1917 14.0182C8.19676 14.3257 8.19555 14.6331 8.19433 14.9406ZM16.4778 7.89061L16.4778 7.89061C16.4629 7.89402 16.4502 7.89692 16.4407 7.89948C16.1302 7.89948 15.8776 7.69635 15.825 7.44531C15.7636 7.15052 15.8985 6.8849 16.1854 6.76719C16.5667 6.61062 16.9496 6.45802 17.3326 6.30542L17.3326 6.30541L17.3326 6.3054L17.333 6.30525L17.3334 6.30511C17.4686 6.25121 17.6039 6.19731 17.7391 6.14323L17.9778 6.04774L17.9779 6.04766L17.9781 6.04759C18.1997 5.9588 18.4212 5.87006 18.6438 5.78385C18.9855 5.65156 19.3162 5.77813 19.4427 6.0849C19.5735 6.40104 19.4235 6.73177 19.075 6.8724C18.2688 7.19844 17.461 7.51979 16.6526 7.8401C16.5902 7.86486 16.5235 7.88013 16.4778 7.89061ZM10.1714 14.0958C10.2256 13.8302 10.4698 13.6359 10.8188 13.637C10.8366 13.643 10.8595 13.6503 10.8858 13.6586L10.8859 13.6586C10.9549 13.6805 11.0479 13.71 11.1391 13.7458C11.9115 14.0521 12.6834 14.3583 13.4532 14.6698C13.736 14.7844 13.8782 15.0427 13.8323 15.3234C13.7922 15.5672 13.5625 15.7854 13.3094 15.8005C13.2151 15.8062 13.1125 15.7901 13.025 15.7557C12.1979 15.4307 11.3719 15.1016 10.5474 14.7688C10.2599 14.6526 10.1136 14.3786 10.1714 14.0958ZM18.7006 8.48542C19.0891 8.33542 19.4953 8.62917 19.4901 9.03333C19.4729 9.28125 19.3599 9.47396 19.1287 9.56875C18.287 9.91146 17.4438 10.25 16.5974 10.5802C16.2896 10.7005 15.962 10.5406 15.8464 10.2406C15.7344 9.95104 15.8667 9.62083 16.1693 9.49687C17.0104 9.1526 17.8532 8.8125 18.7006 8.48542ZM13.4349 17.3844C13.7032 17.4932 13.8386 17.6891 13.8375 17.9464C13.8354 18.3443 13.4386 18.6339 13.062 18.488C12.2084 18.1583 11.3594 17.8172 10.5131 17.4698C10.2115 17.3458 10.0865 17.0141 10.2021 16.7229C10.3203 16.4255 10.6422 16.2792 10.9584 16.3937C11.154 16.4645 11.3467 16.5434 11.5392 16.6223L11.5393 16.6223L11.5393 16.6223L11.5394 16.6223L11.5394 16.6224C11.6231 16.6566 11.7068 16.6909 11.7907 16.7245C11.9515 16.7889 12.1124 16.8532 12.2733 16.9175C12.6609 17.0724 13.0485 17.2272 13.4349 17.3844ZM18.822 16.6125L18.822 16.6125C18.8342 16.6103 18.8441 16.6084 18.8511 16.6068C19.1834 16.6063 19.4141 16.7927 19.4735 17.0693C19.5344 17.3526 19.3917 17.6203 19.0995 17.7396C18.6317 17.93 18.1627 18.1169 17.6936 18.3038L17.2381 18.4854C17.1863 18.5062 17.1346 18.5271 17.083 18.548L17.0828 18.5481C16.9298 18.6101 16.777 18.6719 16.6224 18.7292C16.2943 18.85 15.9729 18.713 15.849 18.4057C15.7282 18.1047 15.8724 17.7729 16.1969 17.6411C16.9504 17.3354 17.706 17.0353 18.4615 16.7352L18.4619 16.7351L18.4622 16.735L18.6735 16.651C18.7272 16.6299 18.7848 16.6193 18.822 16.6125ZM18.6667 13.9349C19.0787 13.7734 19.4985 14.0568 19.4901 14.4766C19.4693 14.7229 19.3584 14.9135 19.124 15.0089C18.2818 15.3495 17.4391 15.6901 16.5927 16.0198C16.2865 16.1391 15.9563 15.975 15.8443 15.676C15.7349 15.3839 15.8724 15.0552 16.1724 14.9333C17.0021 14.5958 17.8328 14.2615 18.6667 13.9349ZM7.39899 7.98333C7.79118 7.83177 8.1891 8.11771 8.18857 8.52708C8.18024 8.77865 8.06514 8.96979 7.83441 9.06354C6.99326 9.40729 6.15003 9.74583 5.30368 10.0766C4.99639 10.1969 4.6667 10.0385 4.55055 9.74115C4.43701 9.45052 4.5667 9.11979 4.86878 8.99583C5.70889 8.65104 6.5516 8.31094 7.39899 7.98333ZM5.17289 7.38881C5.15868 7.39148 5.14675 7.39372 5.13805 7.39583C4.81774 7.39375 4.57868 7.19271 4.52295 6.92031C4.46722 6.64531 4.60993 6.37917 4.89118 6.26354C5.30066 6.0955 5.71215 5.93175 6.12352 5.76806L6.12406 5.76784C6.26714 5.71091 6.4102 5.65398 6.55316 5.59687L6.75188 5.51746C6.95062 5.43797 7.14937 5.35847 7.34899 5.28073C7.68805 5.14896 8.02035 5.27708 8.14639 5.58646C8.27295 5.8974 8.12816 6.22813 7.79222 6.36406C6.97399 6.69531 6.1542 7.02135 5.33389 7.34635C5.27669 7.36931 5.21485 7.38093 5.17289 7.38881ZM7.4016 10.7036C7.79222 10.5521 8.19066 10.8396 8.18805 11.2656C8.17816 11.501 8.06357 11.6906 7.83128 11.7854C6.98962 12.1271 6.14691 12.4661 5.30055 12.7958C4.98962 12.9167 4.66357 12.7589 4.54847 12.4578C4.43753 12.1672 4.56878 11.8385 4.87139 11.7146C5.71149 11.3703 6.55472 11.0318 7.4016 10.7036ZM16.4619 13.331C16.4487 13.3332 16.4377 13.3351 16.4297 13.337C16.124 13.3354 15.8745 13.1318 15.824 12.8797C15.7657 12.5839 15.9006 12.3224 16.1896 12.2042C16.6103 12.0325 17.0326 11.8647 17.4548 11.697L17.4549 11.697L17.4553 11.6968C17.6298 11.6275 17.8043 11.5581 17.9787 11.4885C18.0458 11.4617 18.1127 11.4346 18.1797 11.4075C18.3414 11.342 18.503 11.2766 18.6662 11.2151C18.9938 11.0917 19.325 11.2271 19.4459 11.5292C19.5677 11.8333 19.4287 12.1667 19.1063 12.2979C18.3724 12.596 17.636 12.8875 16.8998 13.1791L16.8996 13.1791L16.6115 13.2932C16.5585 13.3143 16.5008 13.3242 16.4619 13.331ZM12.6666 11.6328L12.406 11.5292L12.4058 11.5291C12.0613 11.3923 11.7339 11.2623 11.4083 11.1276C11.3728 11.113 11.3359 11.051 11.3359 11.0104C11.3343 9.66457 11.3374 8.31822 11.3406 6.97238C11.3406 6.96895 11.3424 6.96552 11.3466 6.95783C11.3494 6.95269 11.3532 6.94564 11.3583 6.9354L11.6346 7.04574C11.956 7.17386 12.2783 7.30238 12.5984 7.43593C12.6322 7.44999 12.6635 7.51613 12.6635 7.5578C12.6669 8.67808 12.6668 9.79909 12.6667 10.9416L12.6666 11.6328ZM5.67869 16.4941C5.67889 16.603 5.6791 16.7136 5.6791 16.8266C5.76489 16.7923 5.84948 16.7586 5.93306 16.7253C6.28637 16.5846 6.62168 16.4511 6.95358 16.3104C6.99212 16.2943 7.01764 16.2052 7.01868 16.1495C7.02337 15.9104 7.02278 15.6714 7.0222 15.4323C7.022 15.3526 7.02181 15.2729 7.02181 15.1932V14.8334C6.92679 14.8711 6.83358 14.908 6.74185 14.9444C6.4112 15.0752 6.0996 15.1986 5.79056 15.3287C5.74108 15.3495 5.68483 15.4271 5.68379 15.4792C5.67743 15.8114 5.67804 16.1436 5.67869 16.4941Z" fill="#132F3D"/>
</svg>
