<svg width="24" height="25" viewBox="0 0 24 25" fill="none" xmlns="http://www.w3.org/2000/svg">
<path fill-rule="evenodd" clip-rule="evenodd" d="M7.11058 4.63416H10.7385C11.0501 4.63416 11.3617 4.63462 11.6732 4.63508H11.6732C12.6075 4.63647 13.5416 4.63786 14.4761 4.62675C15.3416 4.62675 15.8717 4.0796 15.8762 3.22C15.8806 2.60028 15.8828 1.98057 15.8762 1.36085C15.868 0.559002 15.309 0 14.5094 0H7.00322C6.1799 0.000740399 5.62904 0.550849 5.62386 1.37047V3.14743C5.6246 4.12179 6.13251 4.63416 7.11058 4.63416ZM4.29284 3.17629V2.32039C4.09242 2.32773 3.89408 2.32541 3.69758 2.32312H3.69757H3.69757C3.1805 2.31708 2.67621 2.31118 2.18048 2.48179C0.803334 2.95417 0.0022212 4.12253 0.0022212 5.68107C-0.000740399 10.9567 -0.000740399 16.2318 0.0022212 21.5064C-0.0029699 21.7654 0.0153678 22.0244 0.05701 22.2801C0.187711 23.0153 0.574995 23.6804 1.14996 24.1569C1.72493 24.6335 2.45031 24.8906 3.19704 24.8826H11.2896C11.3393 24.8826 11.3887 24.8787 11.4442 24.8744C11.4763 24.8719 11.5105 24.8692 11.548 24.867C11.3585 24.3769 11.4036 23.9045 11.4947 23.4255C11.5976 22.8845 11.6841 22.3411 11.7708 21.7975L11.799 21.6204C11.8643 21.131 12.0867 20.676 12.4328 20.3239C14.7724 17.9818 17.1114 15.6394 19.4496 13.2968C19.8669 12.8737 20.388 12.5673 20.9607 12.4083C21.0731 12.3762 21.1875 12.3516 21.2981 12.3278C21.3508 12.3164 21.4027 12.3053 21.4531 12.2936C21.4621 12.2696 21.4688 12.2448 21.4731 12.2195C21.4731 11.627 21.4738 11.0345 21.4745 10.4419V10.4418V10.4417C21.4764 8.74847 21.4784 7.05501 21.4642 5.36195C21.4575 4.57639 21.1443 3.89004 20.6061 3.31105C19.6739 2.30558 18.4774 2.24783 17.2047 2.34853C17.2047 2.46479 17.2059 2.58031 17.2071 2.6953V2.69532V2.69533C17.2096 2.92378 17.212 3.15015 17.2047 3.3762C17.1625 4.64303 16.291 5.68995 15.0501 5.91207C14.711 5.97284 14.3584 5.96977 14.0084 5.96671H14.0083H14.0083C13.9319 5.96604 13.8556 5.96538 13.7796 5.96538C11.5441 5.97327 9.30855 5.97327 7.07304 5.96538C5.40344 5.95945 4.29284 4.84145 4.29284 3.17629ZM11.7812 10.9557H9.78586L8.81426 10.9559H8.81349H8.81343C7.73327 10.9563 6.65335 10.9567 5.57299 10.9527C5.07692 10.952 4.74078 10.6403 4.72893 10.1879C4.7174 9.98699 4.78466 9.78951 4.91642 9.63743C5.04818 9.48535 5.23405 9.39065 5.43453 9.37344C5.52651 9.36381 5.61896 9.35936 5.71144 9.36011C8.43611 9.36554 11.1613 9.36554 13.8869 9.36011C14.2971 9.35937 14.6436 9.4534 14.8154 9.86506C15.0331 10.3863 14.6621 10.9423 14.0809 10.952C13.5364 10.9604 12.9915 10.9587 12.4468 10.957H12.4467H12.4467H12.4466H12.4465C12.2247 10.9564 12.0029 10.9557 11.7812 10.9557ZM9.2972 15.498H7.41732L6.89579 15.4983H6.89518C6.46057 15.4986 6.02585 15.4989 5.59076 15.4973C5.08432 15.4958 4.73782 15.1885 4.72745 14.7236C4.71709 14.2586 5.04434 13.9062 5.54559 13.9017C6.80871 13.8899 8.07184 13.8899 9.33496 13.9017C9.82658 13.9062 10.1798 14.266 10.1657 14.7206C10.1516 15.1752 9.79697 15.498 9.2972 15.498ZM18.4957 16.1666L21.501 19.1741C21.4129 19.2129 21.3301 19.2627 21.2544 19.3222L20.6927 19.8825C19.2892 21.2823 17.8853 22.6824 16.4959 24.094C16.2499 24.3444 15.9257 24.503 15.5771 24.5435C15.0593 24.6221 14.5415 24.7122 14.0262 24.8018L14.0259 24.8019L13.6935 24.8596C13.0834 24.9648 12.6629 24.5501 12.7643 23.9378C12.7959 23.7469 12.8266 23.5558 12.8572 23.3647L12.8573 23.3643C12.9408 22.8442 13.0242 22.324 13.1271 21.8069C13.1609 21.6078 13.2499 21.4221 13.384 21.2709C15.0622 19.5754 16.7469 17.887 18.438 16.2058C18.4556 16.1906 18.475 16.1774 18.4957 16.1666ZM19.8639 14.83C19.7542 14.9553 19.6456 15.0793 19.5353 15.1967L22.4443 18.1109C22.5428 18.0129 22.6445 17.9138 22.7477 17.8134C22.9765 17.5906 23.2124 17.3609 23.4364 17.1195C23.7968 16.7341 23.998 16.2267 23.9998 15.6991C24.0016 15.1715 23.8038 14.6627 23.4461 14.2749C22.7079 13.4708 21.4677 13.3494 20.62 14.0528C20.3419 14.2838 20.1001 14.5601 19.8639 14.83Z" fill="#FDDFBB"/>
</svg>
