<svg width="34" height="35" viewBox="0 0 34 35" fill="none" xmlns="http://www.w3.org/2000/svg">
<g clip-path="url(#clip0_4527_3055)">
<path d="M14.1452 7.95715L24.0981 9.94774C24.494 10.0269 24.8034 10.3363 24.8826 10.7322L26.8731 20.6851L16.9737 30.5846C16.5831 30.9751 15.95 30.9751 15.5594 30.5846L4.24572 19.2708C3.8552 18.8803 3.85519 18.2472 4.24572 17.8566L14.1452 7.95715ZM17.6808 17.1495C18.4618 17.9306 19.7281 17.9306 20.5092 17.1496C21.2902 16.3685 21.2903 15.1022 20.5092 14.3211C19.7281 13.5401 18.4618 13.5401 17.6808 14.3211C16.8997 15.1022 16.8997 16.3685 17.6808 17.1495ZM11.3168 17.8566L9.90257 19.2708L15.5594 24.9277L16.9737 23.5135L11.3168 17.8566ZM13.4381 15.7353L12.0239 17.1495L17.6808 22.8064L19.095 21.3922L13.4381 15.7353Z" fill="#132F3D"/>
</g>
<defs>
<clipPath id="clip0_4527_3055">
<rect width="24" height="24" fill="white" transform="translate(16.9702 0.882751) rotate(45)"/>
</clipPath>
</defs>
</svg>
