<svg width="24" height="25" viewBox="0 0 24 25" fill="none" xmlns="http://www.w3.org/2000/svg">
<path d="M1 22.8534C1 18.4352 4.58172 14.8534 9 14.8534C13.4183 14.8534 17 18.4352 17 22.8534H1ZM9 13.8534C5.685 13.8534 3 11.1684 3 7.85347C3 4.53847 5.685 1.85347 9 1.85347C12.315 1.85347 15 4.53847 15 7.85347C15 11.1684 12.315 13.8534 9 13.8534ZM18.2463 4.03797C18.732 5.21371 19 6.5023 19 7.85347C19 9.20464 18.732 10.4932 18.2463 11.6689L16.5694 10.4494C16.8485 9.63539 17 8.76212 17 7.85347C17 6.94482 16.8485 6.07154 16.5694 5.25753L18.2463 4.03797ZM21.5476 1.63702C22.4773 3.50997 23 5.62068 23 7.85347C23 10.0863 22.4773 12.1969 21.5476 14.0699L19.9027 12.8736C20.6071 11.3463 21 9.64576 21 7.85347C21 6.06118 20.6071 4.36066 19.9027 2.83335L21.5476 1.63702Z" fill="#A4A4A4"/>
</svg>
