<svg width="24" height="24" viewBox="0 0 24 24" fill="none" xmlns="http://www.w3.org/2000/svg">
<path fill-rule="evenodd" clip-rule="evenodd" d="M16.6982 15.9229C16.7073 16.0129 16.7167 16.1063 16.7271 16.205C17.5315 15.4806 18.179 14.7012 18.5796 13.7356C19.139 12.3887 18.9402 11.1569 18.0052 10.0412C17.5384 9.48437 16.9696 9.04937 16.3565 8.66687C16.2736 8.61495 16.1904 8.56382 16.1072 8.51263C16.0611 8.48431 16.0151 8.45598 15.969 8.42749C17.9865 8.43624 19.7677 9.03562 21.2171 10.5C21.4471 9.30124 21.0696 8.02312 20.254 7.20624C19.6384 6.58999 18.874 6.24999 18.0415 6.04937C17.8182 5.99553 17.5917 5.95443 17.3515 5.91083C17.2347 5.88964 17.1147 5.86786 16.9902 5.84374C17.8252 4.94187 18.919 4.71187 20.0684 4.50687C19.2077 3.65124 18.2265 3.23624 17.059 3.30374C15.9759 3.36624 15.0484 3.83249 14.1827 4.44749C14.1183 4.49337 14.0545 4.54019 13.9925 4.58575C13.9666 4.60472 13.941 4.62348 13.9159 4.64187C13.8557 4.52478 13.7986 4.4096 13.7425 4.29637C13.6225 4.05418 13.5068 3.82088 13.3752 3.59687C12.7409 2.51562 11.8965 1.68437 10.6315 1.38249C9.97336 1.22562 9.31961 1.24499 8.64274 1.45124C9.52524 2.19187 10.354 2.93749 10.6209 4.09687C10.4293 4.04469 10.2424 3.98973 10.0582 3.93555C9.6643 3.81968 9.28261 3.70742 8.89336 3.63374C7.07461 3.28937 5.47336 4.14437 4.72586 5.82562C4.70734 5.8674 4.69204 5.91067 4.6734 5.96344C4.66248 5.99433 4.65041 6.02848 4.63586 6.06749C5.61336 5.79249 6.56336 5.73499 7.52524 5.89249C8.48336 6.04999 9.38524 6.35937 10.2177 6.86812C10.1653 6.88361 10.1149 6.88572 10.0658 6.88777C10.0377 6.88894 10.0101 6.8901 9.98274 6.89374C9.77746 6.92112 9.57076 6.94297 9.36406 6.96482C8.88668 7.01528 8.40932 7.06573 7.94961 7.18437C6.73461 7.49749 5.85086 8.23124 5.46086 9.46749C5.22586 10.2119 5.20149 10.975 5.32399 11.7394C5.37859 12.0812 5.45538 12.4191 5.53217 12.7571C5.56701 12.9105 5.60185 13.0638 5.63461 13.2175C5.73546 13.1568 5.78323 13.0961 5.82803 13.0391C5.83626 13.0286 5.8444 13.0183 5.85274 13.0081C5.98447 12.8474 6.11339 12.684 6.24233 12.5205C6.53918 12.1442 6.83614 11.7677 7.16774 11.4244C8.28399 10.2681 9.60586 9.46499 11.2227 9.20249C12.1652 9.04999 13.0171 9.20187 13.7815 9.80624C14.3009 10.2169 14.7659 10.6725 15.1465 11.2131C16.0377 12.4781 16.4584 13.9106 16.6446 15.4256C16.6644 15.5869 16.6807 15.7484 16.6982 15.9229ZM3.70633 20.6687C3.06008 21.1806 2.73883 21.8531 2.7207 22.7006C6.0782 22.7006 9.41008 22.7006 12.7557 22.7012C12.7532 21.9494 12.4932 21.3287 11.9595 20.825C11.5051 20.3969 10.957 20.1375 10.3645 19.9712C10.12 19.9025 9.87183 19.8468 9.61723 19.7897C9.49942 19.7633 9.38025 19.7366 9.25945 19.7081C9.69133 16.3862 10.7851 13.3125 12.5851 10.4669C12.5411 10.4537 12.5001 10.4378 12.4612 10.4228C12.3834 10.3926 12.3142 10.3658 12.2476 10.3712C11.7676 10.4106 11.2888 10.4644 10.8113 10.5281C10.742 10.5375 10.667 10.615 10.6226 10.68C9.49133 12.3381 8.57633 14.1087 7.87445 15.9887C7.45383 17.1156 7.1157 18.2675 6.88133 19.4481C6.84695 19.6194 6.7807 19.6925 6.59383 19.6956C6.36466 19.6993 6.13427 19.7413 5.90746 19.7826L5.89758 19.7844C5.10633 19.9275 4.34945 20.1594 3.70633 20.6687Z" fill="#132F3D"/>
</svg>
